<svg xmlns="http://www.w3.org/2000/svg" viewBox="0 0 272 92" role="img" aria-label="Google">
  <path
    fill="#4285F4"
    d="M115.75 47.18c0 12.77-9.99 22.18-22.25 22.18s-22.25-9.41-22.25-22.18C71.25 34.32 81.24 25 93.5 25s22.25 9.32 22.25 22.18zm-9.74 0c0-7.98-5.79-13.44-12.51-13.44S80.99 39.2 80.99 47.18c0 7.9 5.79 13.44 12.51 13.44s12.51-5.55 12.51-13.44z"
  />
  <path
    fill="#EA4335"
    d="M163.75 47.18c0 12.77-9.99 22.18-22.25 22.18s-22.25-9.41-22.25-22.18c0-12.85 9.99-22.18 22.25-22.18s22.25 9.32 22.25 22.18zm-9.74 0c0-7.98-5.79-13.44-12.51-13.44s-12.51 5.46-12.51 13.44c0 7.9 5.79 13.44 12.51 13.44s12.51-5.55 12.51-13.44z"
  />
  <path
    fill="#FBBC05"
    d="M209.75 26.34v8.75h-21.66c-2.21 0-3.89 1.14-3.89 3.44 0 1.97 1.49 3.32 3.56 3.32h9.47v8.53h-9.98c-8.32 0-13.93-5.16-13.93-12.87 0-7.79 5.73-12.87 14.17-12.87h12.28V26.34z"
  />
  <path
    fill="#4285F4"
    d="M225 47.18c0-7.98 5.79-13.44 12.51-13.44 4.34 0 7.79 1.8 9.89 4.97l8.03-6.21c-3.72-4.85-9.56-7.79-17.92-7.79-11.09 0-19.9 9.01-19.9 22.18 0 13.17 8.81 22.18 19.9 22.18 8.36 0 14.2-2.94 17.92-7.79l-8.03-6.21c-2.1 3.17-5.55 4.97-9.89 4.97-6.72 0-12.51-5.46-12.51-13.44z"
  />
  <path
    fill="#34A853"
    d="M53.19 42.49c0-1.96 1.57-3.38 3.76-3.38 2.19 0 3.76 1.42 3.76 3.38 0 1.97-1.57 3.39-3.76 3.39-2.19 0-3.76-1.42-3.76-3.39zm-3.19 4.87h6.63v27.03H50V47.36z"
  />
  <path
    fill="#EA4335"
    d="M35.59 27.93v8.75H15.93c-2.21 0-3.89 1.14-3.89 3.44 0 1.97 1.49 3.32 3.56 3.32h9.47v8.53H14.09C5.77 51.97.16 46.81.16 39.1c0-7.79 5.73-12.87 14.17-12.87h12.28V27.93z"
  />
</svg>
