<svg xmlns="http://www.w3.org/2000/svg" viewBox="0 0 108 24" role="img" aria-label="Microsoft">
  <rect x="0" y="0" width="11" height="11" fill="#F25022" />
  <rect x="13" y="0" width="11" height="11" fill="#7FBA00" />
  <rect x="0" y="13" width="11" height="11" fill="#00A4EF" />
  <rect x="13" y="13" width="11" height="11" fill="#FFB900" />
  <path
    fill="#FFFFFF"
    d="M32 6.2h2.2c2.4 0 3.9 1.3 3.9 3.4 0 1.5-.8 2.5-2 3l2.3 4.2h-2.4l-2.1-3.8h-1.7v3.8H30V6.2Zm2.1 1.8v2.8h1.5c1 0 1.6-.5 1.6-1.4 0-.9-.6-1.4-1.6-1.4h-1.5Zm8.1-1.8h2.1v9.4h3.7v1.8H42.2V6.2Zm9.5 0h2.1l3.4 9h-2.3l-.6-1.7h-3.4l-.6 1.7h-2.3l3.3-9Zm.4 5.5-1.1-3.1-1.1 3.1h2.2Zm7.5-5.5h3.6c2.8 0 4.5 1.4 4.5 3.7 0 2.3-1.7 3.7-4.5 3.7h-1.4v2h-2.2V6.2Zm3.4 1.8c1.2 0 1.9.6 1.9 1.5s-.7 1.5-1.9 1.5h-1.2V8Zm9.1 7.6c-2.5 0-4.1-1.9-4.1-4.7 0-2.8 1.6-4.7 4.1-4.7s4.1 1.9 4.1 4.7c0 2.8-1.6 4.7-4.1 4.7Zm0-1.8c1.3 0 2-1.2 2-2.9s-.7-2.9-2-2.9-2 1.2-2 2.9.7 2.9 2 2.9Z"
  />
</svg>
